<svg xmlns="http://www.w3.org/2000/svg" xmlns:xlink="http://www.w3.org/1999/xlink" version="1.1" x="0px" y="0px" viewBox="0 0 100 125" enable-background="new 0 0 100 100" xml:space="preserve"><path fill-rule="evenodd" clip-rule="evenodd" d="M36.1162109,63.9638672l-1.0927734,6.0576172l-1.1884766-5.7480469  c0.4755859-3.1123047,0.59375-6.2236328,0.5-9.4067383l-2.28125-0.5224609  c0.2382813,5.5820313,0.1191406,10.0004883-0.1425781,14.9404297h-0.7363281c-0.2851563,0-0.5214844,0.1899414-0.5214844,0.4521484  v10.2133789c0,0.2617188,0.2363281,0.4755859,0.5214844,0.4755859h0.0234375  c-0.046875,0.831543-0.09375,1.7099609-0.1660156,2.5888672l2.1855469,3.6108398l0.59375-0.831543  c0.7841797,0.0239258,1.6152344,1.6391602,3.3496094,1.5917969c0.1191406,0,0.4746094,0.4980469,0.1660156,0.4506836  c-0.8076172-0.1425781-2.8740234-0.355957-3.5390625-1.6152344l-0.4042969,0.5229492  c2.9941406,3.0874023,30.2626953,3.0874023,33.2558594,0l-0.4042969-0.5229492  c-0.6884766,1.2592773-2.7324219,1.4726563-3.5390625,1.6152344c-0.3085938,0.0473633,0.0478516-0.4506836,0.1660156-0.4506836  c1.734375,0.0473633,2.5664063-1.5678711,3.3251953-1.5917969l0.5947266,0.831543l2.1855469-3.6108398  c-0.0488281-0.8789063-0.0957031-1.7573242-0.1679688-2.5888672h0.0244141c0.3095703,0,0.5458984-0.2138672,0.5458984-0.4755859  V69.7368164c0-0.262207-0.2363281-0.4521484-0.5458984-0.4521484h-0.7119141  c-0.2851563-4.9399414-0.3808594-9.3583984-0.1425781-14.9404297l-2.28125,0.5224609  c-0.09375,3.1831055,0,6.2944336,0.4990234,9.4067383l-1.2109375,5.7480469l-1.0693359-6.0576172l-2.6601563,7.7441406  c1.3066406,4.0136719,2.1376953,6.6030273,0.4511719,6.9125977l-4.0615234,0.7124023h-15.25l-4.0615234-0.7124023  c-1.7109375-0.3095703-0.8789063-2.8989258,0.4277344-6.9125977L36.1162109,63.9638672z"/><path fill-rule="evenodd" clip-rule="evenodd" d="M68.7294922,36.4814453l-0.0478516,4.5371094  c3.9912109,0.7358398,6.2705078,1.7104492,5.5107422,4.1567383l-5.4863281-1.0688477  c-0.3564453,3.800293-0.59375,7.03125-0.7363281,9.9760742l-2.28125,0.5224609  c0.1425781-4.0615234,0.6191406-8.2421875,1.0458984-12.7075195l-2.4951172,7.1259766L63.8369141,63.418457l-2.8271484,8.265625  l-4.0859375,1.6865234c-4.6318359,0-9.2158203,0-13.8242188,0l-4.109375-1.6865234l-2.8271484-8.265625l-0.3798828-14.3950195  l-2.4931641-7.1259766c0.4033203,4.465332,0.8779297,8.6459961,1.0205078,12.7075195l-2.2802734-0.5224609  c-0.1191406-2.9448242-0.3564453-6.1757813-0.7128906-9.9760742l-5.5097656,1.0688477  c-0.7607422-2.4462891,1.5429688-3.4208984,5.5097656-4.1567383l-0.046875-4.5371094l2.7792969-0.6176758l2.8027344,11.4731445  c5.3916016-2.2568359,20.9023438-2.2568359,26.3183594,0l2.7792969-11.4731445L68.7294922,36.4814453z"/><path fill-rule="evenodd" clip-rule="evenodd" d="M54.2871094,10.9936523l5.6064453,2.0429688l0.9257813,3.0405273  l2.4472656,0.4750977l2.0175781,1.9951172l-1.6855469-2.6601563l-2.8505859-0.9501953l-0.5224609-1.7817383l3.8955078,1.4013672  l3.5634766,5.25l0.1425781,0.6884766h0.9970703c0.3095703,0,0.5458984,0.2138672,0.5458984,0.4516602v10.2138672  c0,0.2612305-0.2363281,0.4750977-0.5458984,0.4750977h-0.0478516l-0.046875,4.5844727l-2.7080078-0.59375  c-5.2255859-2.019043-8.2900391-2.2807617-14.2285156-1.9956055c-1.1875,0-2.375,0-3.5634766,0  c-5.9375-0.2851563-9.0019531-0.0234375-14.2285156,1.9956055l-2.7304688,0.59375l-0.0478516-4.5844727h-0.0478516  c-0.2851563,0-0.5214844-0.2138672-0.5214844-0.4750977V20.9467773c0-0.237793,0.2363281-0.4516602,0.5214844-0.4516602h1.0214844  l0.1425781-0.6884766l3.5634766-5.25l3.8955078-1.4013672l-0.546875,1.7817383l-2.8261719,0.9501953l-1.6865234,2.6601563  l1.9951172-1.9951172l2.4707031-0.4750977l0.9257813-3.0405273l5.6064453-2.0429688  C46.5673828,10.9228516,53.4560547,10.9228516,54.2871094,10.9936523L54.2871094,10.9936523z"/><text x="0" y="115" fill="#000000" font-size="5px" font-weight="bold" font-family="'Helvetica Neue', Helvetica, Arial-Unicode, Arial, Sans-serif">Created by Stone</text><text x="0" y="120" fill="#000000" font-size="5px" font-weight="bold" font-family="'Helvetica Neue', Helvetica, Arial-Unicode, Arial, Sans-serif">from the Noun Project</text></svg>